<svg xmlns="http://www.w3.org/2000/svg" viewBox="0 0 263.1 55.78"><defs><style>.cls-1{fill:#a9ca48;}.cls-2{fill:#0fa859;}</style></defs><g id="Layer_2" data-name="Layer 2"><g id="Layer_2-2" data-name="Layer 2"><path class="cls-1" d="M61.87,0a.69.69,0,0,1,.5.69c0,.24,0,.49,0,.74q0,21.54,0,43.09A17.44,17.44,0,0,1,62,48.66a7.38,7.38,0,0,1-2.85,4.05,13,13,0,0,1-6.39,2.6c-1.21.17-2.44.28-3.67.4-.61.07-.7,0-.7-.65,0-4,0-8.05,0-12.08a33.28,33.28,0,0,0-.3-4.11A4.16,4.16,0,0,0,46,35.7a4.64,4.64,0,0,0-1.79-.53C43,35,41.7,35,40.44,34.94c-2.18,0-4.36.07-6.54,0a15.88,15.88,0,0,1-11.17-4.65,15.27,15.27,0,0,1-4.47-9.45c-.15-1.54-.2-3.09-.21-4.64,0-2.17,0-4.35.07-6.53A8.17,8.17,0,0,1,19.25,5.2a10.48,10.48,0,0,1,4.34-3.57A15.85,15.85,0,0,1,28.74.3L31.41,0h.3a.51.51,0,0,1,.36.6c0,.33,0,.66,0,1q0,6.59.08,13.17a8.56,8.56,0,0,0,.49,3,3.21,3.21,0,0,0,1.53,2,10.37,10.37,0,0,0,3.07.88c1.74.17,3.51.13,5.27.17l5.21.08c.24,0,.47.05.74.07v-.45c0-3.56,0-7.11,0-10.67a8,8,0,0,1,2.6-6C53.41,1.59,56.38.75,59.5.3L61.65,0Z"/><path class="cls-2" d="M102,15.38h9l.5,5.3.11.06c.1-.12.22-.22.3-.34a12.85,12.85,0,0,1,6.5-5.07,13,13,0,0,1,8.16-.2,9.85,9.85,0,0,1,6.36,5.74l.18.4c.12-.15.22-.25.3-.37a15.32,15.32,0,0,1,4.76-4.55,13,13,0,0,1,8.18-1.68c4.92.52,7.93,3.41,9.57,7.91a21.22,21.22,0,0,1,1.19,6.16c.06,1.17.07,2.34.08,3.51V54.93H146.83v-.47q0-11.41,0-22.82a13.83,13.83,0,0,0-.89-5.09,5,5,0,0,0-3.26-3.22,5.82,5.82,0,0,0-6.73,2.94,9,9,0,0,0-1,3.74c0,.43,0,.86,0,1.29V54.94H124.56v-.42q0-11.54,0-23.08a12.46,12.46,0,0,0-1-5.25,4.72,4.72,0,0,0-3.78-3,5.63,5.63,0,0,0-5.27,2.1A7.94,7.94,0,0,0,112.67,30c-.06.61-.07,1.23-.07,1.84V54.94H102.32C102.17,41.76,102.54,28.58,102,15.38Z"/><path class="cls-2" d="M193.36,15.38h9.08c.17,1.76.33,3.52.51,5.4a1.93,1.93,0,0,0,.35-.31,12.49,12.49,0,0,1,5.9-4.85,13.29,13.29,0,0,1,12,.71,11.78,11.78,0,0,1,5.11,6.56,22,22,0,0,1,1.19,7.32q0,12.24,0,24.48c0,.07,0,.14,0,.24H217v-.41q0-11.28,0-22.56a15,15,0,0,0-.58-4.52A6.39,6.39,0,0,0,215,24.89a5.39,5.39,0,0,0-5.83-1.42,6.6,6.6,0,0,0-4.68,5.14,13.4,13.4,0,0,0-.33,3c0,7.61,0,15.22,0,22.82v.47H193.64C193.49,41.76,193.86,28.58,193.36,15.38Z"/><path class="cls-2" d="M75.62,15.38v.48q0,11,0,21.93a15.56,15.56,0,0,0,.89,5.65A5.17,5.17,0,0,0,80.18,47a6.21,6.21,0,0,0,6.89-3A7.68,7.68,0,0,0,88.13,40c0-1.8,0-3.61,0-5.42V15.39H98.65c.19,13.18-.27,26.36.37,39.55H89.86l-.51-5.33A2,2,0,0,0,89,50a12.85,12.85,0,0,1-7.52,5.32,13.45,13.45,0,0,1-9.84-1,11,11,0,0,1-5-6,21.3,21.3,0,0,1-1.39-6.54c-.09-1.37-.11-2.75-.11-4.13q0-10.9,0-21.82v-.49Z"/><path class="cls-2" d="M179.63,28.85c0-1.78-.23-3.57-1.57-5a6,6,0,0,0-3.83-1.7,17.65,17.65,0,0,0-6.59.54l-.33.08a5.62,5.62,0,0,0-3-6.5l1.3-.42c.43-.12.85-.25,1.28-.35a30.22,30.22,0,0,1,10.11-.8,15.75,15.75,0,0,1,6.62,2,12.43,12.43,0,0,1,5.65,7.68,20.45,20.45,0,0,1,.82,5.6c0,4.92,0,9.85,0,14.77,0,2.41.11,4.82.21,7.23,0,1,.21,1.95.31,2.95h-9.42l-.66-4.2a3.3,3.3,0,0,0-.35.31,12.1,12.1,0,0,1-7.78,4.48,13.08,13.08,0,0,1-7.4-.69,11,11,0,0,1-6.85-8.58,13,13,0,0,1,2-10,14.33,14.33,0,0,1,6.25-5,25.12,25.12,0,0,1,7.41-2C175.76,29.11,177.67,29,179.63,28.85Zm.25,6.88-.13,0a22.07,22.07,0,0,0-6.41.85A8.81,8.81,0,0,0,170.53,38a6,6,0,0,0-2.16,5.8,4.64,4.64,0,0,0,2.51,3.88,5.59,5.59,0,0,0,3.67.41,6.36,6.36,0,0,0,5.3-5.95c.1-2.1.05-4.21.06-6.31A.92.92,0,0,0,179.88,35.73Z"/><path class="cls-2" d="M262.63,38.33H238.81c.13.82.19,1.61.38,2.38.91,3.72,3.4,5.83,7,6.7a19.22,19.22,0,0,0,6.1.26L254,47.5a6,6,0,0,0,2.11,7.39c-.83.14-1.63.3-2.43.41a38.56,38.56,0,0,1-6.08.37,20.72,20.72,0,0,1-9.9-2.43,16.24,16.24,0,0,1-7.59-9.38,25.68,25.68,0,0,1-1.21-9.09,25,25,0,0,1,2.24-9.89A17.25,17.25,0,0,1,239.76,16a17.73,17.73,0,0,1,9-1.39,14.26,14.26,0,0,1,7.6,2.85,15.38,15.38,0,0,1,5.13,7.47,28.25,28.25,0,0,1,1.35,9.92C262.8,36,262.7,37.14,262.63,38.33ZM253.07,31a1,1,0,0,0,0-.15,12.93,12.93,0,0,0-1-5.24,6.3,6.3,0,0,0-10.69-1.42,11.22,11.22,0,0,0-1.94,3.74,13.65,13.65,0,0,0-.57,3.07Z"/><path class="cls-2" d="M18.16,27.81c.2.32.42.63.6,1a15,15,0,0,0,11,7.64c.61.11,1.22.16,1.84.22.32,0,.49.15.49.5,0,3.22,0,6.45-.14,9.67-.2,4-2.44,6.53-6.16,7.85a20.33,20.33,0,0,1-7.3,1.09,2.73,2.73,0,0,1-.38,0V27.86Z"/><path class="cls-1" d="M14.16,27.86V55.69l-.29.05a20,20,0,0,1-7.82-1.26,8.77,8.77,0,0,1-4.71-3.89,8.46,8.46,0,0,1-1-3.85c-.08-3.2-.09-6.4-.11-9.6,0-.42.08-.48.57-.52a16,16,0,0,0,9.4-3.75,13.36,13.36,0,0,0,3.27-4c.19-.35.42-.67.63-1Z"/><path class="cls-2" d="M14.19,13.06a52.28,52.28,0,0,1-.09,7.3A15.6,15.6,0,0,1,6.84,32.45,16,16,0,0,1,.31,34.77H0Q.11,23.94.21,13.15c.52.34,1,.72,1.56,1a10.77,10.77,0,0,0,7.14,1.26,9.55,9.55,0,0,0,3.39-1.16C13,13.9,13.56,13.47,14.19,13.06Z"/><path class="cls-1" d="M14.19,13.06c-.63.41-1.24.84-1.89,1.21a9.55,9.55,0,0,1-3.39,1.16,10.77,10.77,0,0,1-7.14-1.26c-.54-.3-1-.68-1.56-1a6.25,6.25,0,0,1,.24-1A7.07,7.07,0,0,1,3.29,8.64,5.59,5.59,0,0,0,5.68,10a5.5,5.5,0,0,0,5.09-1.15c.2-.17.33-.19.53,0A7,7,0,0,1,14.19,13.06Z"/><path class="cls-1" d="M259.29,53.77A3.8,3.8,0,1,1,263.1,50,3.81,3.81,0,0,1,259.29,53.77Z"/><path class="cls-1" d="M165.54,21.27A3.56,3.56,0,1,1,162,17.71,3.53,3.53,0,0,1,165.54,21.27Z"/><path class="cls-2" d="M7.14,1.32a3.25,3.25,0,0,1,3.28,3.23A3.29,3.29,0,1,1,7.14,1.32Z"/></g></g></svg>