<svg xmlns="http://www.w3.org/2000/svg" viewBox="0 0 62.4 55.75"><defs><style>.cls-1{fill:#a9ca48;}.cls-2{fill:#0fa859;}</style></defs><g id="Layer_2" data-name="Layer 2"><g id="Layer_2-2" data-name="Layer 2"><path class="cls-1" d="M61.87,0a.69.69,0,0,1,.5.69c0,.24,0,.49,0,.74q0,21.54,0,43.09A17.44,17.44,0,0,1,62,48.66a7.38,7.38,0,0,1-2.85,4.05,13,13,0,0,1-6.39,2.6c-1.21.17-2.44.28-3.67.4-.61.07-.7,0-.7-.65,0-4,0-8.05,0-12.08a33.28,33.28,0,0,0-.3-4.11A4.16,4.16,0,0,0,46,35.7a4.64,4.64,0,0,0-1.79-.53C43,35,41.7,35,40.44,34.94c-2.18,0-4.36.07-6.54,0a15.88,15.88,0,0,1-11.17-4.65,15.27,15.27,0,0,1-4.47-9.45c-.15-1.54-.2-3.09-.21-4.64,0-2.17,0-4.35.07-6.53A8.17,8.17,0,0,1,19.25,5.2a10.48,10.48,0,0,1,4.34-3.57A15.85,15.85,0,0,1,28.74.3L31.41,0h.3a.51.51,0,0,1,.36.6c0,.33,0,.66,0,1q0,6.59.08,13.17a8.56,8.56,0,0,0,.49,3,3.21,3.21,0,0,0,1.53,2,10.37,10.37,0,0,0,3.07.88c1.74.17,3.51.13,5.27.17l5.21.08c.24,0,.47.05.74.07v-.45c0-3.56,0-7.11,0-10.67a8,8,0,0,1,2.6-6C53.41,1.59,56.38.75,59.5.3L61.65,0Z"/><path class="cls-2" d="M18.16,27.81c.2.32.42.63.6,1a15,15,0,0,0,11,7.64c.61.11,1.22.16,1.84.22.32,0,.49.15.49.5,0,3.22,0,6.45-.14,9.67-.2,4-2.44,6.53-6.16,7.85a20.33,20.33,0,0,1-7.3,1.09,2.73,2.73,0,0,1-.38,0V27.86Z"/><path class="cls-1" d="M14.16,27.86V55.69l-.29.05a20,20,0,0,1-7.82-1.26,8.77,8.77,0,0,1-4.71-3.89,8.46,8.46,0,0,1-1-3.85c-.08-3.2-.09-6.4-.11-9.6,0-.42.08-.48.57-.52a16,16,0,0,0,9.4-3.75,13.36,13.36,0,0,0,3.27-4c.19-.35.42-.67.63-1Z"/><path class="cls-2" d="M14.19,13.06a52.28,52.28,0,0,1-.09,7.3A15.6,15.6,0,0,1,6.84,32.45,16,16,0,0,1,.31,34.77H0Q.11,23.94.21,13.15c.52.34,1,.72,1.56,1a10.77,10.77,0,0,0,7.14,1.26,9.55,9.55,0,0,0,3.39-1.16C13,13.9,13.56,13.47,14.19,13.06Z"/><path class="cls-1" d="M14.19,13.06c-.63.41-1.24.84-1.89,1.21a9.55,9.55,0,0,1-3.39,1.16,10.77,10.77,0,0,1-7.14-1.26c-.54-.3-1-.68-1.56-1a6.25,6.25,0,0,1,.24-1A7.07,7.07,0,0,1,3.29,8.64,5.59,5.59,0,0,0,5.68,10a5.5,5.5,0,0,0,5.09-1.15c.2-.17.33-.19.53,0A7,7,0,0,1,14.19,13.06Z"/><path class="cls-2" d="M7.14,1.32a3.25,3.25,0,0,1,3.28,3.23A3.29,3.29,0,1,1,7.14,1.32Z"/></g></g></svg>